<?xml version="1.0" encoding="utf-8"?>
<!-- Generator: Adobe Illustrator 27.2.0, SVG Export Plug-In . SVG Version: 6.00 Build 0)  -->
<svg version="1.1" id="Layer_1" xmlns="http://www.w3.org/2000/svg" xmlns:xlink="http://www.w3.org/1999/xlink" x="0px" y="0px"
	 viewBox="0 0 352 237" style="enable-background:new 0 0 352 237;" xml:space="preserve">
<style type="text/css">
	.st0{fill:#3F0727;}
	.st1{fill:#55062C;}
	.st2{fill:#FFA07F;}
	.st3{fill:#FF7D6F;}
	.st4{fill:#FDE4D9;}
	.st5{fill:#D94562;}
	.st6{fill:#CA9F87;}
	.st7{fill:#B48674;}
	.st8{fill:#FFB15F;}
	.st9{fill:#F79244;}
	.st10{fill:#FFBF90;}
	.st11{fill:#FC5B68;}
	.st12{fill:#CF4A57;}
	.st13{fill:#161818;}
	.st14{fill:#FFF0E7;}
	.st15{fill:#6F0A32;}
	.st16{fill:#FF8035;}
	.st17{fill:#3A435E;}
	.st18{fill:#456997;}
	.st19{fill:#E94E21;}
	.st20{fill:#C2ADB9;}
	.st21{fill:#97818D;}
	.st22{fill:#985551;}
	.st23{fill:#763231;}
	.st24{fill:#424242;}
	.st25{fill:#252727;}
</style>
<g>
	<g>
		<path class="st0" d="M91.2,61.6c-0.6,3.5-2.7,6.5-5.3,8.4s-5.8,2.9-8.9,3.4c-5.9,0.9-12.1,0.1-17.1-3.3c-5-3.5-8.6-9.9-8.2-16.5
			c0.3-4.4,2-10.6,4-14.4c2.9-5.5,6.5-8.9,11.5-11.9c0.1-0.1,0.3-0.1,0.4-0.2c4.5-2.5,10-2.6,14.5-0.2c0,0,0.6,2.1,1.1,4.1
			c0.2,0.7,0.4,1.4,0.5,2c0.4,2,0.4,4.1,0.8,6.2c0.7,3.9,2.7,7.4,4.3,11C90.4,53.7,91.8,57.7,91.2,61.6z"/>
		<path class="st1" d="M91.2,61.6c-0.6,3.5-2.7,6.5-5.3,8.4s-5.8,2.9-8.9,3.4c-5.9,0.9-12.1,0.1-17.1-3.3c-5-3.5-8.6-9.9-8.2-16.5
			c0.3-4.4,2-10.6,4-14.4c2.9-5.5,6.5-8.9,11.5-11.9c0.1-0.1,0.3-0.1,0.4-0.2l0.8,1.8l-9.8,11.2c0,0-8.7,14.9,0.5,22.2
			c9.3,7.3,25.7,5.3,28.6,1.2c2.9-4.2-2.2-16.1-2.2-16.1l-3.6-15.8l1.2-0.6c0.2,0.7,0.4,1.4,0.5,2c0.4,2,0.4,4.1,0.8,6.2
			c0.7,3.9,2.7,7.4,4.3,11C90.4,53.7,91.8,57.7,91.2,61.6z"/>
	</g>
	<g>
		<g>
			<g>
				<g>
					<g>
						<g>
							<g>
								<g>
									<path class="st2" d="M52,160.1c0,0-5.9,12.2-6.2,17c-0.1,2.5-0.9,30.9-0.9,30.9l7.8-0.2c0,0,6.6-36.1,8.5-40.4
										c0.8-1.9,2.4-10.4,3.9-19.1c-4.6-0.3-9.1-0.9-13.6-1.6C51.8,154.1,52,160.1,52,160.1z"/>
									<path class="st2" d="M71.8,148.7c0.3,6.6,0.6,12.2,0.7,12.9c0,0-2.6,8.3-3.3,12.6c-0.5,3.2,3.8,37,3.8,37l8-0.2
										c0,0,1.3-43.2,2.3-46.3c0.4-1.4,1.4-8.5,2.3-16.6C81,148.7,76.4,148.8,71.8,148.7z"/>
									<path class="st3" d="M52,160.1c0,0-5.9,12.2-6.2,17c-0.1,2.5-0.9,30.9-0.9,30.9h1.3c0.3-8.5,1.2-30.9,1.8-31.5
										c0.7-0.7,7.2-17.8,7.2-17.8s-0.4-5-0.8-11.6c-1-0.1-1.9-0.3-2.9-0.4C51.8,154.1,52,160.1,52,160.1z"/>
									<path class="st3" d="M72.5,161.6c0,0-2.6,8.3-3.3,12.6c-0.5,3.2,3.8,37,3.8,37h1.8l-3.6-34.8l3.6-15.7l-0.4-11.9
										c-0.9,0-1.8,0-2.6,0C72.1,155.3,72.4,161,72.5,161.6z"/>
									<path class="st3" d="M56.7,166.8c0.1,0.1,0.1,0.3,0.3,0.3s0.3,0,0.4,0c0.7-0.2,1.3-0.8,1.8-1.4c1-1.3,3-5.8,0-5.8
										C56.2,160,55.9,164.8,56.7,166.8z"/>
									<path class="st3" d="M77.2,167.5c0.3,0.6,0.6,1.3,1.3,1.5c0.5,0.2,1.2,0,1.6-0.4c0.5-0.4,0.8-0.9,1-1.4
										c0.5-0.9,0.9-1.9,1.1-3c0.3-2.1-1.5-4.9-3.9-3.7C76,161.7,76.5,165.5,77.2,167.5z"/>
								</g>
							</g>
						</g>
					</g>
				</g>
			</g>
			<g>
				<polygon class="st4" points="82.3,211 82.6,201.2 70.6,201.5 72,212.4 				"/>
				<g>
					<path class="st5" d="M97.8,220.2c-0.1-0.5-0.3-1-1-1.3c-1.8-0.8-8.5-3-10.3-4.4c-1.4-1.1-2.7-3.4-3.2-4.4l-12.2,1
						c-0.6,3.2-0.9,9.3-1,10.6L97.8,220.2z"/>
					<polygon class="st4" points="97.9,222.9 70.3,224.4 70.2,221.6 97.8,220.2 					"/>
					<g>
						<path class="st4" d="M84.2,215.4L84.2,215.4c-0.2,0.3-0.2,0.7,0.1,0.9c0.2,0.1,0.4,0,0.5,0c0.6-0.1,1.1-0.4,1.7-0.8
							c0.6-0.4,1.1-0.7,1.5-1.3c0.4-0.6-0.2-1.1-0.9-1C86,213.4,84.8,214.3,84.2,215.4z"/>
						<path class="st4" d="M86.4,216.7C86.4,216.8,86.4,216.8,86.4,216.7c-0.2,0.3-0.2,0.7,0.1,0.9c0.2,0.1,0.4,0,0.5,0
							c0.6-0.1,1.1-0.4,1.7-0.8c0.6-0.4,1.1-0.7,1.5-1.3c0.4-0.6-0.2-1.1-0.9-1C88.2,214.8,87,215.7,86.4,216.7z"/>
						<path class="st4" d="M89,217.6L89,217.6c-0.2,0.3-0.2,0.7,0.1,0.9c0.2,0.1,0.4,0,0.5,0c0.6-0.1,1.1-0.4,1.7-0.8
							c0.6-0.4,1.1-0.7,1.5-1.3c0.4-0.6-0.2-1.1-0.9-1C90.8,215.7,89.6,216.5,89,217.6z"/>
					</g>
				</g>
			</g>
			<g>
				<path class="st4" d="M53.7,208.8l2.4-8.3l-11.4-1.8c0,0-0.5,8.5-0.2,9.7C45,209.7,53.7,208.8,53.7,208.8z"/>
				<g>
					<g>
						<path class="st5" d="M39.6,223.8c0,0,6.1,4.2,7.7,4.2c1.6,0.1,10.2-2.4,10.1-3.5c0-0.4-0.2-1.8-0.5-3.4
							c-0.6-3.1-1.4-7.1-1.8-7.6c-0.6-0.8-0.2-5.8-0.2-5.8s-8.9-1.9-10.1-1.4c-0.9,0.3-3.6,10.6-4.7,15.3
							C39.8,222.9,39.6,223.8,39.6,223.8z"/>
						<path class="st4" d="M39.6,223.8c0,0,6.1,4.2,7.7,4.2c1.6,0.1,10.2-2.4,10.1-3.5c0-0.4-0.2-1.8-0.5-3.4
							c-2.8,1.2-8.7,3.6-10.7,2.9c-1.4-0.5-3.9-1.6-6.1-2.5C39.8,222.9,39.6,223.8,39.6,223.8z"/>
					</g>
					<path class="st4" d="M47,215.2C47,215.2,46.9,215.2,47,215.2c-0.3,0.2-0.6,0.4-0.4,0.7c0.1,0.2,0.3,0.2,0.4,0.3
						c0.6,0.2,1.2,0.4,1.8,0.4c0.7,0.1,1.4,0.1,2-0.1c0.6-0.3,0.5-1-0.1-1.3C49.6,214.7,48.1,214.7,47,215.2z"/>
					<path class="st4" d="M47.1,217.6C47,217.6,47,217.6,47.1,217.6c-0.3,0.2-0.6,0.4-0.4,0.7c0.1,0.2,0.3,0.2,0.4,0.3
						c0.6,0.2,1.2,0.4,1.8,0.4c0.7,0.1,1.4,0.1,2-0.1c0.6-0.3,0.5-1-0.1-1.3C49.6,217.2,48.1,217.1,47.1,217.6z"/>
					<path class="st4" d="M46.9,219.8C46.8,219.8,46.8,219.8,46.9,219.8c-0.3,0.2-0.6,0.4-0.4,0.7c0.1,0.2,0.3,0.2,0.4,0.3
						c0.6,0.2,1.2,0.4,1.8,0.4c0.7,0.1,1.4,0.1,2-0.1c0.6-0.3,0.5-1-0.1-1.3C49.4,219.4,47.9,219.3,46.9,219.8z"/>
				</g>
			</g>
		</g>
		<path class="st6" d="M90.8,161.7c-8.9,3-42.3-1.8-42.3-1.8s1.1-42.3,1.6-44.2c0.5-1.8,5-9,5-9l4.5,0.3l24.3,1.5l6,46.7L90.8,161.7
			z"/>
		<path class="st7" d="M90.8,161.7c-8.9,3-42.3-1.8-42.3-1.8s1.1-42.3,1.6-44.2c0.5-1.8,5-9,5-9l4.5,0.3c-2.6,3.8-6.7,10.4-6.4,12.5
			c0.5,3,1.2,34.9,1.2,34.9s22,3.1,35.4,0.9L90.8,161.7z"/>
	</g>
	<g>
		<path class="st8" d="M58.9,57.8V58v0.1v0.1c0.3,1.9,0.9,6.4,1.4,11.9c0.1,0.9,0.2,1.9,0.2,2.8c0.3,3.8,0.5,7.8,0.5,11.6
			c0,8.1-6.1,17.9-7.9,23l32.3,1.1c-0.9-8,0.1-25.5,0.1-25.5s0.5-0.4,1.2-1.4c2.2-3.2,2.8-7.3,1.8-11.1c-1.6-6-4.8-12.8-4.8-12.8
			s-1.1,0.1-2.6,0.2c-3.6,0.2-9.8,0.5-10.3-0.2c-0.7-0.9,0.7-6.4,0.7-6.4L65,49.2c0,0-1.1,7.7-1.9,8.2l-2.8-0.1h-1.5v0.3L58.9,57.8z
			"/>
		<path class="st9" d="M79.9,66.4c-2.1,1.7-4.3,2.9-7,3.3c-2.5,0.4-4.7-0.2-7.1-0.6c-0.4-0.1-0.6,0.4-0.3,0.6
			c4.5,3.3,11.7,1.1,15.4-2.4C81.5,66.8,80.6,65.9,79.9,66.4z"/>
		<path class="st2" d="M81.2,58.1c-0.6,2.6-2.4,7.9-8.6,9.1c-6.9,1.3-11-6.9-12.3-9.8l2.8,0.1c0.8-0.5,1.9-8.2,1.9-8.2l6.5,2.2
			c0,0-1.4,5.5-0.7,6.4C71.4,58.5,77.6,58.3,81.2,58.1z"/>
		<g>
			<path class="st10" d="M68.3,25.9c0.2,0,9.4,1.5,11.1,4.6c1.7,3,4.4,14.3,2.3,19.9s-5.9,5-7.2,4.7s-7.7-2.6-9.2-4.6
				s-5.1-12.3-4.6-15.1C61.3,32.6,68.3,25.9,68.3,25.9z"/>
			<path class="st2" d="M67.8,25.1c0.2,0,9.4,1.5,11.1,4.6s4.4,14.4,2.3,20s-5.9,5-7.2,4.7s-7.7-2.6-9.2-4.6s-5.1-12.3-4.6-15.1
				C60.8,31.8,67.8,25.1,67.8,25.1z"/>
			<g>
				<path class="st3" d="M75.1,44.7c-0.3,0-0.6-0.1-0.9,0c0.4,0.6,1.1,1,1.8,1.1c0.1,0,0.1,0,0.2,0c0.1,0,0.1-0.1,0.2-0.1
					c0.3-0.3,0.6-0.7,0.7-1c0-0.1,0.1-0.2,0.1-0.2c0-0.3-0.2-0.2-0.3-0.1c-0.2,0.1-0.4,0.2-0.5,0.3C75.9,44.6,75.5,44.7,75.1,44.7z"
					/>
				<path class="st11" d="M76,45.5c0.1-0.2,0.3-0.4,0.4-0.5c0.2-0.2,0.3-0.5,0.4-0.7c-1-0.4-1.2-1.3-1.5-2.4c-0.1-0.5-0.1-1,0.1-1.4
					c0.1-0.2,0.2-0.5,0.3-0.7c0.1-0.1,0.1-0.2,0.2-0.3c0.1-0.1,0.2-0.2,0.3-0.2c0,0.1-0.1,0.2-0.1,0.2c-0.1,0.2-0.2,0.4-0.3,0.6
					c-0.1,0.2-0.1,0.4-0.1,0.6c-0.1,0.4-0.1,0.9,0,1.3c0.1,0.4,0.2,0.8,0.5,1.2s0.7,0.8,1.2,0.9c0,0-0.4,0.9-0.5,0.9
					c-0.1,0.2-0.3,0.4-0.4,0.5c-0.1,0.2-0.3,0.3-0.5,0.4c-0.1,0-0.1,0-0.2,0l0.1-0.1c0,0,0,0,0-0.1C76,45.6,76,45.6,76,45.5z"/>
			</g>
			<path class="st2" d="M64.4,44.8c-0.3-0.1-2.1-2.3-3.2-0.9c-1.1,1.4-1.3,3.6-0.1,4.8c1.1,1.1,2.5,2.2,4.2,1.7L64.4,44.8z"/>
			<path class="st3" d="M61.3,45.7c-0.1,0.3,0,0.6,0.1,0.9c0.5,1.2,1.7,2.1,2.8,2.9c-0.4-0.6-0.5-1.2-0.5-1.9c0-0.2,0-0.5,0-0.7
				C63.7,45.9,61.6,43.9,61.3,45.7z"/>
			<g>
				<path class="st12" d="M64.8,49.8C64.8,49.8,64.8,49.7,64.8,49.8c-0.1-0.1-0.2-0.1-0.3-0.1c-0.2-0.1-0.4-0.3-0.6-0.5
					c-0.2-0.2-0.4-0.6-0.5-1s-0.1-0.9,0.1-1.3c0-0.1,0-0.1,0.1-0.2l0,0l0,0l0,0l0,0l0,0l0,0l0,0v-0.1l-0.1-0.1
					c-0.1-0.2-0.2-0.3-0.4-0.5c-0.1-0.2-0.3-0.3-0.4-0.4c-0.1-0.1-0.3-0.2-0.4-0.3c-0.1-0.1-0.2-0.1-0.4-0.1c-0.1,0-0.2,0-0.3,0.1
					c-0.1,0-0.1,0.1-0.1,0.1v0.1c0,0,0,0,0-0.1c0,0,0-0.1,0.1-0.2c0.1-0.1,0.2-0.1,0.3-0.1c0.2,0,0.3,0,0.5,0.1s0.3,0.2,0.5,0.3
					c0.1,0.1,0.3,0.2,0.5,0.4c0.1,0.1,0.3,0.3,0.4,0.5l0.1,0.1v0.1l0.1,0.1v0.1c0,0,0,0,0,0.1L63.9,47c0,0,0,0.1-0.1,0.1
					c-0.1,0.4-0.2,0.8-0.1,1.2c0.1,0.4,0.2,0.7,0.4,0.9s0.3,0.4,0.5,0.5C64.7,49.6,64.7,49.7,64.8,49.8
					C64.8,49.7,64.8,49.8,64.8,49.8z"/>
			</g>
			<path class="st0" d="M80.7,36.1c0,0-1.7-1.2-2.7-1s-1.3,1.1-0.9,1.3S80.7,36.1,80.7,36.1z"/>
			<path class="st0" d="M66.2,38.4c0,0,2.3-2.2,3.8-2.6c1.6-0.4,2.2,0.5,1.6,0.9C71.1,37.1,66.2,38.4,66.2,38.4z"/>
			<g>
				<path class="st13" d="M67.7,39.3c0.2,0.4,0.8,0.7,1.2,0.8c0.2-0.2,0.4-0.4,0.7-0.4c0.7-0.1,1.3,0.7,1.4,1.8c0.1,1.1-0.4,2-1,2
					c-0.7,0.1-1.3-0.7-1.4-1.8c0-0.3,0-0.6,0.1-0.9C68,40.4,67.7,39.3,67.7,39.3z"/>
				<path class="st14" d="M69.7,41.8c0,0-0.7,0.3-1.5,0.2s-1.3-0.7-1.3-0.7s0.7-0.3,1.5-0.2C69.2,41.2,69.7,41.8,69.7,41.8z"/>
			</g>
			<g>
				<path class="st13" d="M80,38c-0.1,0.4-0.5,0.7-0.8,0.9c-0.2-0.2-0.4-0.2-0.6-0.2c-0.5,0.1-0.9,0.8-0.7,1.7
					c0.1,0.9,0.7,1.5,1.2,1.4s0.9-0.8,0.7-1.7c0-0.3-0.1-0.5-0.2-0.7C80,38.9,80,38,80,38z"/>
				<path class="st14" d="M78.9,40.4c0,0,0.6,0.1,1.2-0.1c0.6-0.3,0.9-0.8,0.9-0.8s-0.6-0.1-1.2,0.1S78.9,40.4,78.9,40.4z"/>
			</g>
			<g>
				<path class="st3" d="M70.8,45.5c0,0.5-1.1,0.8-2.4,0.7c-1.3-0.1-2.3-0.6-2.3-1.1s1.1-0.8,2.4-0.7C69.8,44.5,70.8,45,70.8,45.5z"
					/>
				<path class="st3" d="M83.2,42.3c0.2,0.3-0.5,1-1.5,1.6c-1,0.5-1.9,0.7-2.1,0.4s0.5-1,1.5-1.6C82.1,42.2,83.1,42,83.2,42.3z"/>
			</g>
			<g>
				<path class="st11" d="M79,47.9c0,0-4.5-2.1-8.7,0.1c0,0,2,3.5,4.3,3.4C77.3,51.3,79,47.9,79,47.9z"/>
				<path class="st14" d="M78.8,48.1c0,0-3.1-0.8-8.2,0.1c0,0,1.2,2.8,4.2,2.6C77.8,50.6,78.8,48.1,78.8,48.1z"/>
			</g>
		</g>
		<g>
			<path class="st0" d="M64.5,44.9c0,0-1.8-1.6-3-0.9c0,0-1.1,1.3-1.2,2.4c0,0-0.8-3.1-1.6-6.4l0,0c-0.2-0.6-0.3-1.2-0.4-1.8
				c-0.5-2.1-0.8-4.1-0.6-5.1c0-0.1,0-0.1,0-0.2c0-0.1,0-0.1,0.1-0.2c1-2.1,7.5-9.4,11.3-9.8c0.9-0.1,2-0.1,3.2,0.1
				c0.1,0,0.3,0,0.4,0c0.2,0,0.4,0,0.6,0.1c0.1,0,0.3,0,0.4,0.1c1.8,0.3,3.6,0.7,5.2,1.2c0.2,0.1,0.4,0.1,0.6,0.2
				c0.1,0,0.2,0.1,0.3,0.1c0.4,0.1,0.7,0.2,1,0.4c0.1,0,0.1,0.1,0.2,0.1c0.6,0.2,1,0.5,1.3,0.7c0.6,0.5,1.1,1.6,1.6,2.8
				c0.9,2.3,1.5,5,1.5,5l0,0c-2-0.8-4.2-1-6.2-0.5l-3.6,0.7c0,0-7,1.3-9.2,2.4l-2.5,1L64.5,44.9z"/>
			<path class="st1" d="M58.1,38.2c0.1,0.6,0.3,1.2,0.4,1.8l0,0l0,0c1-0.6,1.4-3.3,1.8-4.4c0.5-1.3,0.5-2.9,1.5-3.8
				c0.8-0.7,1.9-0.9,3-0.9S67,31,68,30.6c1.8-0.6,2.9-2.3,4.6-3.1c2.1-0.9,4.5-0.1,6.6,0.5c1.3,0.4,2.8,0.8,4.2,0.7
				c-0.5-1.2-1-2.4-1.6-2.8c-0.3-0.2-0.7-0.5-1.3-0.7c-0.1,0-0.1-0.1-0.2-0.1c-0.3-0.1-0.6-0.3-1-0.4c-0.1,0-0.2-0.1-0.3-0.1
				c-0.2-0.1-0.4-0.1-0.6-0.2c-1.5-0.5-3.4-0.9-5.2-1.2c-0.1,0-0.3,0-0.4-0.1c-0.2,0-0.4-0.1-0.6-0.1c-0.1,0-0.3,0-0.4,0
				c-1.2-0.1-2.3-0.2-3.2-0.1c-3.8,0.4-10.3,7.7-11.3,9.8c0,0.1,0,0.1-0.1,0.2c0,0,0,0.1,0,0.2C57.3,34.2,57.6,36.1,58.1,38.2z"/>
			<path class="st15" d="M57.6,33c1-0.3,2-0.9,2.7-1.6c0.8-0.8,1.3-1.9,2.3-2.4c1.2-0.5,2.6-0.2,3.9-0.6c1.7-0.6,2.6-2.5,4.2-3.3
				c1.5-0.8,3.4-0.5,5.2-0.4c0.7,0.1,1.9,0.1,2.9-0.2c-3-1-7.3-1.8-9.8-1.5c-3.8,0.4-10.3,7.7-11.3,9.8C57.6,32.9,57.6,33,57.6,33z"
				/>
		</g>
	</g>
	<path class="st16" d="M63.2,57.5c0,0,2.7,31.6,1.1,36.8s-7.3,37.6-10.4,37.6c-3,0-18.2-7.5-17.6-10.5s11.4-37.8,11.4-37.8
		S49,61.1,50.1,60C51.2,58.9,56.8,56.4,63.2,57.5z"/>
	<polygon class="st4" points="59,104.4 56.8,103.2 47.5,113.3 49,114.9 	"/>
	<path class="st16" d="M76.1,58.3c0,0,10.3,69.2,10.6,71.8s13.9-10,14.1-12.6c0.2-2.6-10-32-10-32s2.1-7.5,0.8-11.9
		s-6.5-16.1-6.5-16.1S82,56.9,76.1,58.3z"/>
	<path class="st4" d="M64.2,54.5c0,0-6.1,1.6-6.3,2.9c-0.2,1.2,6,9.3,6,9.3l3.8-6.1L64.2,54.5z"/>
	<path class="st4" d="M71,53.9c0,0-1,2.7-0.2,4s6,6,6,6l4.3-6.5c0,0-5.2-2.2-5.5-2.2S71,53.9,71,53.9z"/>
	<path class="st17" d="M47,142.6c-6.1,0.3-12.2-0.2-18.2-1.3s-11.8-2.9-17.4-5.4l10-36.7l29.7,5.6l-3.4,32L47,142.6z"/>
	<path class="st18" d="M56.6,140.6c-6,1.4-12,2.1-18.1,2.1s-12.2-0.7-18.1-2.1l3-37.9h30.2l2.6,32L56.6,140.6z"/>
	<path class="st16" d="M31.2,102.6l9.2-4.7c0,0,1.1-8.1-0.2-13.4c0,0,10.1-1.9,13.1-4.5L52,58.8c0,0-25.6,8.6-29.6,23
		C18.4,96.3,31.2,102.6,31.2,102.6z"/>
	<path class="st19" d="M49.5,102.8h-1.6c-0.8-4.6-4.5-8.4-9.6-8.3c-5,0.1-8.4,3.8-9.2,8.3h-1.6c0.7-5.3,5-9.7,10.7-9.8
		C44.2,92.9,48.7,97.3,49.5,102.8z"/>
	<path class="st4" d="M46.9,104.1l-1.5-0.3c0.1-4.7-2.9-9.1-7.9-9.9c-4.9-0.8-9,2.1-10.5,6.4l-1.5-0.3c1.7-5.1,6.7-8.6,12.4-7.6
		C43.6,93.4,47.2,98.6,46.9,104.1z"/>
	<g>
		<g>
			<g>
				<g>
					<g>
						<g>
							<g>
								<path class="st2" d="M53.2,102c-0.2,1-7.2-1.4-7.2-1.4l-1.3,1.6l2.8,1.3l2.7,3.6c0,0-0.4,0.8-1,1.7c0,0.1-0.1,0.2-0.2,0.2
									l0,0c0,0,0,0.1-0.1,0.1c-0.1,0.1-0.1,0.2-0.2,0.3c-0.3,0.4-0.6,0.9-0.9,1.2l-0.1,0.1c-0.2,0.2-0.4,0.4-0.6,0.6
									c-0.2,0.2-0.4,0.3-0.5,0.3l-2.6-2.3c0,0-4.8,0.9-5.4,0.6c-0.3-0.1-1.1-1.1-2-2.2c-0.3-0.4-0.6-0.8-0.9-1.2l0,0
									c-0.1-0.1-0.2-0.3-0.3-0.4l0.8-1.2l0.2-0.3l0.1-0.1l0.1-0.1l2.8-4c0.1,0,0.2-0.1,0.3-0.1c0.4-0.2,0.9-0.3,1.4-0.5
									c0.3-0.1,0.7-0.2,1-0.3c1.3-0.4,2.7-0.7,3.8-0.7c0.5,0,0.9,0,1.3,0.2C49.8,99.6,53.5,100.9,53.2,102z"/>
							</g>
						</g>
					</g>
				</g>
				<g>
					<g>
						<path class="st12" d="M49.3,108.7c-0.1,0.1-0.1,0.2-0.2,0.3c0,0,0,0-0.1-0.1c-0.3-0.4-0.8-0.9-1.4-1.5c-0.5-0.5-1-1-1.5-1.3
							c-0.1-0.1-0.2-0.1-0.3-0.2c-0.1-0.1-0.2-0.1-0.2-0.1c-0.1-0.1-0.2-0.1-0.2-0.1s0.1,0,0.2,0s0.2,0,0.3,0c0.1,0,0.2,0.1,0.4,0.1
							c0.6,0.2,1.3,0.6,1.9,1.2C48.7,107.6,49.1,108.2,49.3,108.7z"/>
					</g>
				</g>
				<g>
					<path class="st12" d="M47.9,110.6l-0.1,0.1c-0.1-0.1-0.2-0.3-0.4-0.4c-0.3-0.4-0.8-0.9-1.4-1.5c-0.5-0.5-1-1-1.5-1.3
						c-0.1-0.1-0.2-0.1-0.3-0.2c-0.1-0.1-0.2-0.1-0.2-0.1c-0.1-0.1-0.2-0.1-0.2-0.1s0.1,0,0.2,0s0.2,0,0.3,0c0.1,0,0.2,0.1,0.4,0.1
						c0.5,0.2,1.3,0.6,1.9,1.2c0.6,0.6,0.9,1.3,1.1,1.7C47.9,110.3,47.9,110.5,47.9,110.6z"/>
				</g>
			</g>
		</g>
		<path class="st4" d="M31.2,102.6c0,0,1.6,2.9,4.6,3.8l5.1-6.8l-0.5-1.8L31.2,102.6z"/>
	</g>
	<path class="st16" d="M107.1,102l-9.2-4.7c0,0-1.9-8.7,1.4-13c0,0-9-2.7-10.8-6.3l-3.4-20.4c0,0,29.6,6.4,31.5,31.1
		C117.4,98.7,107.1,102,107.1,102z"/>
	<path class="st19" d="M48.2,63.5c-0.2-0.1-0.4,0.1-0.3,0.3c1.3,2.3,2.7,4.1,3.4,6.8c0.8,3.5,0.1,6.9-1.4,10.1
		c-0.4,0.7,0.7,1.4,1.1,0.6C53.7,75.9,53.7,67.4,48.2,63.5z"/>
	<polygon class="st4" points="85.5,103.8 87.7,102.6 97,112.7 95.5,114.3 	"/>
	<path class="st19" d="M84.8,60.3C84.7,60.3,84.7,60.4,84.8,60.3c0.8,2.7,2.5,4.9,3.6,7.5c1.3,3.3,2.2,6.6,2.6,10.1
		c0.1,0.9,1.5,0.9,1.4,0C91.8,72.3,89.8,63.9,84.8,60.3z"/>
	<path class="st19" d="M39.7,83.2c-0.8-0.9-1.6-1.9-2.4-2.7c-0.6-0.5-1.3,0.3-0.8,0.8c0.4,0.6,0.9,1.1,1.4,1.6c-0.2,0-0.5,0-0.7-0.1
		c-0.6-0.1-1.3-0.3-1.9-0.2c-0.4,0.1-0.3,0.5-0.1,0.7c1,0.7,2.9,0.7,4.2,0.7C39.8,84.2,40,83.6,39.7,83.2z"/>
	<path class="st19" d="M104.9,81.9c-0.7-0.3-1.4,0.3-2,0.5c-0.4,0.2-0.9,0.4-1.3,0.6c0.1-0.2,0.1-0.5,0.2-0.7c0.1-0.5,0.3-1,0.2-1.5
		c-0.1-0.3-0.4-0.3-0.6-0.2c-0.4,0.4-0.5,0.9-0.7,1.4c-0.2,0.6-0.4,1.2-0.6,1.9c-0.2,0.5,0.4,0.9,0.9,0.7c0.8-0.4,1.6-0.7,2.5-1.1
		c0.7-0.3,1.4-0.4,1.6-1.1C105.2,82.1,105.1,82,104.9,81.9z"/>
	<path class="st17" d="M127.4,136.5c-5.7,2.3-11.6,4-17.6,5s-12.1,1.3-18.2,0.8l-3.1-37.9l29.8-4.8l7.7,31.2L127.4,136.5z"/>
	<path class="st4" d="M114.3,100.4l-1.5,0.2c-1.5-4.5-5.8-7.5-10.8-6.6c-4.9,0.9-7.7,5.1-7.7,9.6l-1.5,0.2c-0.1-5.4,3.4-10.3,9-11.4
		C107.5,91.4,112.6,95.1,114.3,100.4z"/>
	<path class="st18" d="M82,141.5c6,1.4,12,2.1,18.1,2.1s12.2-0.7,18.1-2.1l-3-37.9H85l-2.6,32L82,141.5z"/>
	<path class="st19" d="M89.2,103.7h1.6c0.8-4.6,4.5-8.4,9.6-8.3c5,0.1,8.4,3.8,9.2,8.3h1.6c-0.7-5.3-5-9.7-10.7-9.8
		C94.4,93.8,90,98.2,89.2,103.7z"/>
	<g>
		<g>
			<g>
				<g>
					<g>
						<g>
							<g>
								<path class="st2" d="M85,101.4c0.2,1,7.2-1.4,7.2-1.4l1.3,1.6l-2.8,1.3l-2.7,3.6c0,0,0.4,0.8,1,1.7c0,0.1,0.1,0.2,0.2,0.2
									l0,0c0,0,0,0.1,0.1,0.1c0.1,0.1,0.1,0.2,0.2,0.3c0.3,0.4,0.6,0.9,0.9,1.2l0.1,0.1c0.2,0.2,0.4,0.4,0.6,0.6
									c0.2,0.2,0.4,0.3,0.5,0.3l2.6-2.3c0,0,4.8,0.9,5.4,0.6c0.3-0.1,1.1-1.1,2-2.2c0.3-0.4,0.6-0.8,0.9-1.2l0,0
									c0.1-0.1,0.2-0.3,0.3-0.4l-0.8-1.2l-0.2-0.3l-0.1-0.1l-0.1-0.1l-2.8-4c-0.1,0-0.2-0.1-0.3-0.1c-0.4-0.2-0.9-0.3-1.4-0.5
									c-0.3-0.1-0.7-0.2-1-0.3c-1.3-0.4-2.7-0.7-3.8-0.7c-0.5,0-0.9,0-1.3,0.2C88.5,98.9,84.8,100.3,85,101.4z"/>
							</g>
						</g>
					</g>
				</g>
				<g>
					<g>
						<path class="st12" d="M89,108.1c0.1,0.1,0.1,0.2,0.2,0.3c0,0,0,0,0.1-0.1c0.3-0.4,0.8-0.9,1.4-1.5c0.5-0.5,1-1,1.5-1.3
							c0.1-0.1,0.2-0.1,0.3-0.2c0.1-0.1,0.2-0.1,0.2-0.1c0.1-0.1,0.2-0.1,0.2-0.1s-0.1,0-0.2,0c-0.1,0-0.2,0-0.3,0s-0.2,0.1-0.4,0.1
							c-0.6,0.2-1.3,0.6-1.9,1.2C89.5,107,89.2,107.6,89,108.1z"/>
					</g>
				</g>
				<g>
					<path class="st12" d="M90.3,110l0.1,0.1c0.1-0.1,0.2-0.3,0.4-0.4c0.3-0.4,0.8-0.9,1.4-1.5c0.5-0.5,1-1,1.5-1.3
						c0.1-0.1,0.2-0.1,0.3-0.2c0.1-0.1,0.2-0.1,0.2-0.1c0.1-0.1,0.2-0.1,0.2-0.1s-0.1,0-0.2,0c-0.1,0-0.2,0-0.3,0s-0.2,0.1-0.4,0.1
						c-0.5,0.2-1.3,0.6-1.9,1.2c-0.6,0.6-0.9,1.3-1.1,1.7C90.4,109.7,90.3,109.9,90.3,110z"/>
				</g>
			</g>
		</g>
		<path class="st4" d="M107.1,102c0,0-1.6,2.9-4.6,3.8L97.4,99l0.5-1.8L107.1,102z"/>
	</g>
	<polygon class="st1" points="57.9,36.9 51.6,36.3 53.3,33 57,35 55.8,29.8 58.9,35 	"/>
</g>
<g>
	<g>
		<path class="st19" d="M294.9,83.8l2-1c0.8-1.5,2.1-2.8,3.9-3.6c1.7-0.8,3.2-0.8,4.6-0.4c0.2,0.1,0.4,0.1,0.6,0.2
			c3.6,1.4,6.1,5.8,7.3,9.3c0.3,0.9,1.7,0.4,1.4-0.5c-1.8-5.6-6.5-12.4-13.4-10.4C297.8,78.4,295.9,80.8,294.9,83.8z"/>
		<path class="st16" d="M274.6,134.8c6.1,0.9,12.2,1,18.2,0.5c6.1-0.5,12.1-1.8,17.9-3.7l-6.4-37.5l-30.1,2.7l0.3,32.1L274.6,134.8z
			"/>
		<path class="st17" d="M299.3,81.7l1.8-0.9c0.5-2,1.8-3.5,4.1-3.8c5.1-0.8,10.2,3.2,12.8,7.2c0.5,0.8,1.8-0.1,1.3-0.9
			c-3.1-4.8-10.3-10-16.3-7.2C300.7,77,299.7,79.2,299.3,81.7z"/>
		<g>
			<g>
				<g>
					<path class="st2" d="M320.9,68.7c-0.5-0.5-10.5,4.9-10.5,4.9c0.6-1.7,0.7-3.6,0.1-5.3l0,0c-0.1-0.2-0.1-0.3-0.3-0.3
						c-0.1,0-0.1,0-0.2,0c-0.6,0.2-1,0.8-1.2,1.4c-0.2,0.6-0.3,1.3-0.4,1.9c-0.3,1.2-1,2.2-1.7,3.3c-1.2,1.7,0.2,5.2,0.2,5.2
						s-0.2,0.2-0.6,0.5l3.3,4.7l2.1-1.5h1.6c1.2-0.1,10.2-6.3,9.9-7c-0.1-0.2-0.1-0.4-0.2-0.6c-0.1-0.3-0.3-0.6-0.4-0.7
						c-0.1-0.1-0.1-0.2-0.1-0.2s0-0.4-0.1-0.9c0-0.3-0.1-0.6-0.2-0.8c-0.1-0.3-0.2-0.5-0.4-0.5c-0.2-0.1-0.8,0.1-1.7,0.4
						c-2.1,0.7-5.4,2-5.4,1.8c0.1-0.4,6.4-5,6.4-5s0-0.2-0.1-0.6C321.2,69.1,321.1,68.9,320.9,68.7z"/>
					<path class="st3" d="M322,72.7c-0.2-0.1-0.8,0.1-1.7,0.4c-0.1,0.6,0,1.4-0.2,2c-0.2,0.9-0.7,1.8-1.3,2.5c-1,1.2-2.4,2-3.8,2.5
						c-1.4,0.6-2.9,1-4.3,1.7c-0.7,0.4-1.4,0.8-2.1,1.3l1.3,1.9l1.9-1.7h1.6c1.2-0.1,10.2-6.3,9.9-7c-0.1-0.2-0.1-0.4-0.2-0.6
						c-0.1-0.3-0.3-0.6-0.4-0.7c-0.1-0.1-0.1-0.2-0.1-0.2s0-0.4-0.1-0.9c0-0.3-0.1-0.6-0.2-0.8C322.3,73,322.2,72.8,322,72.7z"/>
					<g>
						<g>
							<path class="st12" d="M322.5,74.1c-0.2,0.1-0.4,0.2-0.6,0.3c-1.1,0.6-2.2,0.9-2.9,1.1c-0.7,0.2-1.2,0.3-1.3,0.3
								c0,0,0.5-0.3,1.1-0.7c0.7-0.4,1.6-1,2.7-1.5c0.3-0.1,0.5-0.3,0.8-0.4C322.5,73.5,322.5,73.8,322.5,74.1z"/>
						</g>
						<g>
							<path class="st12" d="M323.1,75.9c-1.7,0.9-3.3,1.3-3.4,1.4c0.1-0.1,1.3-1.1,3-2.1C322.8,75.4,323,75.6,323.1,75.9z"/>
						</g>
					</g>
					<path class="st10" d="M307.2,81.3C307.2,81.3,307.3,81.3,307.2,81.3c0.2-0.2,0.4-0.3,0.5-0.4c0.1-0.1,0.2-0.2,0.2-0.4
						c0.2-0.4,0.1-0.8,0-1.1c-0.3-1.2-0.7-2.5-0.5-3.7c0.2-1.5,1.2-2.7,1.7-4.1c0.4-1,0.5-2.2,1.1-3c0.1-0.1,0.2-0.2,0.3-0.3
						c-0.1-0.1-0.1-0.3-0.3-0.3c-0.1,0-0.2,0-0.2,0c-0.6,0.2-1,0.8-1.2,1.4c-0.2,0.6-0.3,1.3-0.4,1.9c-0.3,1.2-1,2.2-1.7,3.3
						c-1.2,1.7,0.2,5.2,0.2,5.2s-0.3,0.1-0.6,0.3c0,0,0,0-0.1,0l-0.2,0.1L307.2,81.3z"/>
				</g>
				<g>
					<path class="st12" d="M310.4,81.3c0,0,0.1,0,0.2-0.1s0.3-0.2,0.5-0.4c0.4-0.4,0.8-1,1-1.8s0-1.6-0.2-2.1
						c-0.1-0.2-0.2-0.4-0.3-0.6c-0.1-0.1-0.1-0.2-0.1-0.2s0,0.1,0,0.2c0,0.1,0,0.3,0,0.6c0,0.5-0.1,1.1-0.2,1.8s-0.3,1.3-0.5,1.8
						c-0.1,0.2-0.2,0.4-0.2,0.5C310.4,81.2,310.4,81.3,310.4,81.3z"/>
				</g>
			</g>
		</g>
		<g>
			<path class="st20" d="M265.5,52.6c0,0,8.5,0.9,11.7,3.9c3.8,3.5,12.4,28.4,12.4,28.4l7.2-2.1l2.4-1.2l1.8-0.9l4.3-2l0.3-0.2
				l0.2,0.4l5.8,9c0,0-4,2.5-8.8,5.2c-0.4,0.2-0.8,0.5-1.3,0.7c-6,3.4-12.8,7-14.7,6.7c-1-0.1-2.4-0.9-4-1.8
				c-4.1-2.5-9.1-6.8-9.1-6.8l-2.6-29.1L265.5,52.6z"/>
			<path class="st21" d="M285.3,92.6c1.2-1.3,2.2-2.8,3-4.4c0.2-0.3,0.7-0.2,0.7,0.1c0.2,1.3,0.5,2.5,0.9,3.7
				c0.2,0.5-0.6,0.7-0.7,0.3c-0.3-0.9-0.6-1.9-0.8-2.8c-0.7,1.3-1.6,2.5-2.5,3.6C285.5,93.5,285,93,285.3,92.6z"/>
		</g>
		<path class="st18" d="M294.6,129.7c6.1,0.1,12.2-0.5,18.2-1.7c6-1.3,11.8-3.2,17.3-5.8l-10.9-36.5L289.7,92l4.1,31.9L294.6,129.7z
			"/>
		<path class="st8" d="M308.8,128c6-1.1,11.9-3,17.4-5.4c5.6-2.5,10.8-5.6,15.7-9.2l-18.1-33.5l-27.6,12.2l10.6,30.3L308.8,128z"/>
		<path class="st19" d="M294,91.1l1.5-0.3c-0.1-2.7,0.2-5.6,1.4-8l-2,1C294.1,86.1,293.9,88.7,294,91.1z"/>
		<path class="st17" d="M300.3,90.3l1.4-0.6c-0.8-2.8-1.3-6.3-0.6-8.9l-1.8,0.9C299,84.4,299.5,87.6,300.3,90.3z"/>
	</g>
	<g>
		<path class="st19" d="M220.4,85.5l-2-1c-0.8-1.5-2.1-2.8-3.9-3.6c-1.7-0.8-3.2-0.8-4.6-0.4c-0.2,0.1-0.4,0.1-0.6,0.2
			c-3.6,1.4-6.1,5.8-7.3,9.3c-0.3,0.9-1.7,0.4-1.4-0.5c1.8-5.6,6.5-12.4,13.4-10.4C217.4,80.1,219.4,82.5,220.4,85.5z"/>
		<path class="st16" d="M240.7,136.5c-6.1,0.9-12.2,1-18.2,0.5s-12.1-1.8-17.9-3.7l6.4-37.5l30.1,2.7l-0.3,32.1L240.7,136.5z"/>
		<path class="st17" d="M216,83.4l-1.8-0.9c-0.5-2-1.8-3.5-4.1-3.8c-5.1-0.8-10.2,3.2-12.8,7.2c-0.5,0.8-1.8-0.1-1.3-0.9
			c3.1-4.8,10.3-10,16.3-7.2C214.5,78.8,215.6,80.9,216,83.4z"/>
		<g>
			<g>
				<g>
					<path class="st2" d="M194.3,70.4c0.5-0.5,10.5,4.9,10.5,4.9c-0.6-1.7-0.7-3.6-0.1-5.3l0,0c0.1-0.2,0.1-0.3,0.3-0.3
						c0.1,0,0.1,0,0.2,0c0.6,0.2,1,0.8,1.2,1.4c0.2,0.6,0.3,1.3,0.4,1.9c0.3,1.2,1,2.2,1.7,3.3c1.2,1.7-0.2,5.2-0.2,5.2
						s0.2,0.2,0.6,0.5l-3.3,4.7l-2.1-1.5h-1.6c-1.2-0.1-10.2-6.3-9.9-7c0.1-0.2,0.1-0.4,0.2-0.6c0.1-0.3,0.3-0.6,0.4-0.7
						c0.1-0.1,0.1-0.2,0.1-0.2s0-0.4,0.1-0.9c0-0.3,0.1-0.6,0.2-0.8c0.1-0.3,0.2-0.5,0.4-0.5c0.2-0.1,0.8,0.1,1.7,0.4
						c2.1,0.7,5.4,2,5.4,1.8c-0.1-0.4-6.4-5-6.4-5s0-0.2,0.1-0.6C194.1,70.8,194.2,70.6,194.3,70.4z"/>
					<path class="st3" d="M193.3,74.4c0.2-0.1,0.8,0.1,1.7,0.4c0.1,0.6,0,1.4,0.2,2c0.2,0.9,0.7,1.8,1.3,2.5c1,1.2,2.4,2,3.8,2.5
						c1.4,0.6,2.9,1,4.3,1.7c0.7,0.4,1.4,0.8,2.1,1.3l-1.3,1.9l-1.9-1.7h-1.6c-1.2-0.1-10.2-6.3-9.9-7c0.1-0.2,0.1-0.4,0.2-0.6
						c0.1-0.3,0.3-0.6,0.4-0.7c0.1-0.1,0.1-0.2,0.1-0.2s0-0.4,0.1-0.9c0-0.3,0.1-0.6,0.2-0.8C193,74.7,193.1,74.5,193.3,74.4z"/>
					<g>
						<g>
							<path class="st12" d="M192.7,75.8c0.2,0.1,0.4,0.2,0.6,0.3c1.1,0.6,2.2,0.9,2.9,1.1c0.7,0.2,1.2,0.3,1.3,0.3
								c0,0-0.5-0.3-1.1-0.7c-0.7-0.4-1.6-1-2.7-1.5c-0.3-0.1-0.5-0.3-0.8-0.4C192.8,75.2,192.8,75.5,192.7,75.8z"/>
						</g>
						<g>
							<path class="st12" d="M192.2,77.6c1.7,0.9,3.3,1.3,3.4,1.4c-0.1-0.1-1.3-1.1-3-2.1C192.5,77.1,192.3,77.3,192.2,77.6z"/>
						</g>
					</g>
					<path class="st10" d="M208.1,83C208,83,208,83,208.1,83c-0.2-0.2-0.4-0.3-0.5-0.4c-0.1-0.1-0.2-0.2-0.2-0.4
						c-0.2-0.4-0.1-0.8,0-1.1c0.3-1.2,0.7-2.5,0.5-3.7c-0.2-1.5-1.2-2.7-1.7-4.1c-0.4-1-0.5-2.2-1.1-3c-0.1-0.1-0.2-0.2-0.3-0.3
						c0.1-0.1,0.1-0.3,0.3-0.3c0.1,0,0.2,0,0.2,0c0.6,0.2,1,0.8,1.2,1.4c0.2,0.6,0.3,1.3,0.4,1.9c0.3,1.2,1,2.2,1.7,3.3
						c1.2,1.7-0.2,5.2-0.2,5.2s0.3,0.1,0.6,0.3c0,0,0,0,0.1,0l0.2,0.1L208.1,83z"/>
				</g>
				<g>
					<path class="st12" d="M204.9,83c0,0-0.1,0-0.2-0.1s-0.3-0.2-0.5-0.4c-0.4-0.4-0.8-1-1-1.8s0-1.6,0.2-2.1
						c0.1-0.2,0.2-0.4,0.3-0.6c0.1-0.1,0.1-0.2,0.1-0.2s0,0.1,0,0.2c0,0.1,0,0.3,0,0.6c0,0.5,0.1,1.1,0.2,1.8s0.3,1.3,0.5,1.8
						c0.1,0.2,0.2,0.4,0.2,0.5C204.9,82.9,204.9,83,204.9,83z"/>
				</g>
			</g>
		</g>
		<g>
			<path class="st20" d="M249.7,54.3c0,0-8.5,0.9-11.7,3.9c-3.8,3.5-12.4,28.4-12.4,28.4l-7.2-2.1l-2.4-1.2l-1.8-0.9l-4.3-2
				l-0.3-0.2l-0.2,0.4l-5.8,9c0,0,4,2.5,8.8,5.2c0.4,0.2,0.8,0.5,1.3,0.7c6,3.4,12.8,7,14.7,6.7c1-0.1,2.4-0.9,4-1.8
				c4.1-2.5,9.1-6.8,9.1-6.8l2.6-29.1L249.7,54.3z"/>
			<path class="st21" d="M230,94.3c-1.2-1.3-2.2-2.8-3-4.4c-0.2-0.3-0.7-0.2-0.7,0.1c-0.2,1.3-0.5,2.5-0.9,3.7
				c-0.2,0.5,0.6,0.7,0.7,0.3c0.3-0.9,0.6-1.9,0.8-2.8c0.7,1.3,1.6,2.5,2.5,3.6C229.7,95.2,230.3,94.7,230,94.3z"/>
		</g>
		<path class="st8" d="M220.6,131.5c-6.1,0.1-12.2-0.5-18.2-1.7s-11.8-3.2-17.3-5.8L196,87.5l29.5,6.3l-4.1,31.9L220.6,131.5z"/>
		<path class="st18" d="M206.5,129.7c-6-1.1-11.9-3-17.4-5.4c-5.6-2.5-10.8-5.6-15.7-9.2l18.1-33.5l27.6,12.2l-10.6,30.3
			L206.5,129.7z"/>
		<path class="st19" d="M221.3,92.8l-1.5-0.3c0.1-2.7-0.2-5.6-1.4-8l2,1C221.2,87.8,221.4,90.4,221.3,92.8z"/>
		<path class="st17" d="M215,92l-1.4-0.6c0.8-2.8,1.3-6.3,0.6-8.9l1.8,0.9C216.3,86.1,215.8,89.3,215,92z"/>
	</g>
	<g>
		<g>
			<g>
				<g>
					<g>
						<g>
							<g>
								<g>
									<g>
										<path class="st22" d="M220.6,222.3c0.1-0.5,0.3-1,0.9-1.3c1.8-0.8,8.6-3.3,10.4-4.7c1.4-1.1,2.7-3.5,3.2-4.5l12.5,0.6
											c0.7,3.2,1.2,9.4,1.3,10.6L220.6,222.3z"/>
										<polygon class="st23" points="220.5,225.1 248.8,225.9 248.9,223.1 220.6,222.3 										"/>
										<g>
											<path class="st23" d="M234.3,217.1C234.3,217.2,234.4,217.2,234.3,217.1c0.2,0.3,0.3,0.7-0.1,0.9c-0.2,0.1-0.4,0-0.5,0
												c-0.6-0.1-1.2-0.4-1.7-0.7c-0.6-0.3-1.2-0.7-1.6-1.3c-0.4-0.6,0.2-1.1,0.9-1C232.4,215.3,233.7,216.1,234.3,217.1z"/>
											<path class="st23" d="M232.1,218.6C232.2,218.6,232.2,218.6,232.1,218.6c0.2,0.3,0.3,0.7-0.1,0.9c-0.2,0.1-0.4,0-0.5,0
												c-0.6-0.1-1.2-0.4-1.7-0.7c-0.6-0.3-1.2-0.7-1.6-1.3c-0.4-0.6,0.2-1.1,0.9-1C230.2,216.7,231.5,217.5,232.1,218.6z"/>
											<path class="st23" d="M229.5,219.5C229.5,219.5,229.5,219.6,229.5,219.5c0.2,0.3,0.3,0.7-0.1,0.9c-0.2,0.1-0.4,0-0.5,0
												c-0.6-0.1-1.2-0.4-1.7-0.7c-0.6-0.3-1.2-0.7-1.6-1.3c-0.4-0.6,0.2-1.1,0.9-1C227.6,217.6,228.9,218.5,229.5,219.5z"/>
										</g>
									</g>
									<g>
										<path class="st22" d="M279.6,223.6c0,0-6.1,4.3-7.8,4.5c-1.7,0.1-10.5-2.1-10.5-3.2c0-0.4,0.2-1.8,0.5-3.5
											c0.5-3.1,1.3-7.2,1.6-7.7c0.6-0.8,0-5.9,0-5.9s9.1-2.1,10.3-1.7c1,0.3,3.9,10.6,5.2,15.2
											C279.3,222.7,279.6,223.6,279.6,223.6z"/>
										<path class="st23" d="M279.6,223.6c0,0-6.1,4.3-7.8,4.5c-1.7,0.1-10.5-2.1-10.5-3.2c0-0.4,0.2-1.8,0.5-3.5
											c2.9,1.1,9,3.3,11,2.6c1.4-0.5,4-1.7,6.2-2.7C279.3,222.7,279.6,223.6,279.6,223.6z"/>
									</g>
									<path class="st24" d="M279.5,211.5c-0.2,0.1-0.4,0.2-0.6,0.2c-10.6,3.9-20.1,1.3-20.1,1.3l-1.4-48.1l-6.6-37.5l-0.4-2.4
										l-0.1,2.4l-1.7,35.8l3.2,50.9c-0.6,0.3-1.3,0.5-1.9,0.7c-8.9,2.6-20.4-0.7-20.4-0.7s1.3-44.6,1.1-48
										c-0.2-2.2,1.3-24.9,2.3-40.6c0.6-8.5,1-14.8,1-14.8h38.9l-0.1,13l1,39.6C273.6,163.2,280.3,211.2,279.5,211.5z"/>
									<path class="st25" d="M272.7,110.7l-0.1,13c-8.3,2.5-15.6,3.5-21.8,3.7l-0.4-2.4l-0.1,2.4c-7.9,0.2-13.8-0.9-17.5-1.9
										c0.6-8.5,1-14.8,1-14.8L272.7,110.7L272.7,110.7z"/>
									<path class="st23" d="M271.7,215.1h0.1c0.3,0.1,0.5,0.4,0.4,0.7c-0.1,0.2-0.3,0.3-0.4,0.3c-0.6,0.3-1.2,0.4-1.8,0.5
										c-0.7,0.1-1.4,0.2-2-0.1c-0.7-0.2-0.5-1,0.1-1.3C269.1,214.8,270.6,214.6,271.7,215.1z"/>
									<path class="st23" d="M271.7,217.5h0.1c0.3,0.1,0.5,0.4,0.4,0.7c-0.1,0.2-0.3,0.3-0.4,0.3c-0.6,0.3-1.2,0.4-1.8,0.5
										c-0.7,0.1-1.4,0.2-2-0.1c-0.7-0.2-0.5-1,0.1-1.3C269.1,217.2,270.6,217.1,271.7,217.5z"/>
									<path class="st23" d="M272,219.7h0.1c0.3,0.1,0.5,0.4,0.4,0.7c-0.1,0.2-0.3,0.3-0.4,0.3c-0.6,0.3-1.2,0.4-1.8,0.5
										c-0.7,0.1-1.4,0.2-2-0.1c-0.7-0.2-0.5-1,0.1-1.3C269.3,219.4,270.8,219.3,272,219.7z"/>
								</g>
								<path class="st25" d="M251.8,214.1c-0.6,0.3-1.3,0.5-1.9,0.7l-3.7-51.5l3.6-43.2l0.7,5l-0.1,2.4l-1.7,35.8L251.8,214.1z"/>
								<path class="st25" d="M279.5,211.5c-0.2,0.1-0.4,0.2-0.6,0.2l-7.9-48.6l-0.5-52.5h2.3l-0.1,13l1,39.6
									C273.6,163.2,280.3,211.2,279.5,211.5z"/>
							</g>
						</g>
					</g>
				</g>
			</g>
		</g>
		<g>
			<g>
				<g>
					<g>
						<g>
							<g>
								<path class="st2" d="M261.8,51.1c-0.2,0.2-9.8,7.3-9.8,7.3s0.2-4.4,0.3-6.7c0-0.7,0.1-1.2,0.1-1.3c0-0.9-0.8-4.9-0.8-4.9
									l9.7-4.4c0,0,0.2,2,0.3,4.2C261.8,48,261.9,51,261.8,51.1z"/>
								<path class="st3" d="M261.6,45.3c-2.7,2-8.6,6.2-9.2,6.4c0,0,0,0-0.1,0c0-0.7,0.1-1.2,0.1-1.3c0-0.9-0.8-4.9-0.8-4.9
									l9.7-4.4C261.3,41.1,261.4,43.1,261.6,45.3z"/>
							</g>
						</g>
						<g>
							<g>
								<path class="st2" d="M262.6,41.5c0,0-0.2,0.7-1.3,1.7l0,0c-0.2,0.2-0.5,0.4-0.8,0.6c-1.1,0.8-11.8,5.4-13.5,5.2
									c-1.6-0.2-3.2-5.9-3.3-6.5c-0.5-3.6-2-14.9-2-14.9c4.1-12.3,18.5-5.9,20.2-4.7C263.6,24.1,262.6,41.5,262.6,41.5z"/>
								<path class="st10" d="M261.3,43.1c-0.2,0.2-0.5,0.4-0.8,0.6c-1.1,0.8-11.8,5.4-13.5,5.2c-1.6-0.2-3.2-5.9-3.3-6.5
									c1,2.5,2.2,5.9,3.3,5.8C248.9,48.1,260,43.8,261.3,43.1z"/>
							</g>
							<g>
								<path class="st1" d="M243.1,31.9c0,0,1.1-3.1,2.4-2.4s0.9,0.9,0.9,0.9L243.1,31.9z"/>
								<path class="st1" d="M258.4,28c0,0-4.3-3.5-5.5-1.8c-0.7,1,0,1.5,0,1.5L258.4,28z"/>
								<g>
									<path class="st13" d="M256.5,33.6c0,1.1-0.6,2.1-1.3,2.1c-0.7,0-1.3-0.9-1.3-2.1s0.6-2.1,1.3-2.1S256.5,32.4,256.5,33.6z"
										/>
									<path class="st14" d="M257.7,32.4c0,0-0.5,0.7-1.2,1s-1.6,0.1-1.6,0.1s0.5-0.7,1.2-1C256.9,32.2,257.7,32.4,257.7,32.4z"/>
								</g>
								<g>
									<path class="st13" d="M244.4,34.4c0,0.9,0.4,1.5,1,1.5c0.5,0,1-0.7,1-1.5s-0.4-1.5-1-1.5S244.4,33.5,244.4,34.4z"/>
									<path class="st14" d="M243.6,33.6c0,0,0.3,0.5,0.9,0.7s1.1,0.1,1.1,0.1s-0.3-0.5-0.9-0.7C244.1,33.5,243.6,33.6,243.6,33.6
										z"/>
								</g>
								<g>
									<path class="st11" d="M254,43.2c-1,0.5-2.2,0.5-3.1,0.1c0.3,0.5,0.8,0.8,1.4,0.8C252.9,44,253.6,43.6,254,43.2z"/>
								</g>
								<path class="st3" d="M245.4,39.1c-0.2,0.4-1.1,0.5-2.2,0.1s-1.7-1.1-1.6-1.5c0.2-0.4,1.1-0.5,2.2-0.1S245.5,38.6,245.4,39.1
									z"/>
								<path class="st3" d="M258.3,37c0.2,0.7-0.9,1.6-2.5,2s-3,0.2-3.1-0.5c-0.2-0.7,0.9-1.6,2.5-2
									C256.7,36.1,258.1,36.3,258.3,37z"/>
								<g>
									<path class="st11" d="M256.3,40.1c0,0-0.1,0.1-0.2,0.3s-0.3,0.4-0.6,0.6c-0.5,0.5-1.4,1.1-2.5,1.4c-1.1,0.3-2.1,0.2-2.8,0
										c-0.4-0.1-0.6-0.2-0.8-0.3c-0.2-0.1-0.3-0.1-0.3-0.1s0.1,0,0.3,0.1c0.2,0,0.5,0.1,0.8,0.1c0.7,0.1,1.7,0,2.7-0.2
										c1-0.3,1.9-0.7,2.5-1c0.3-0.2,0.5-0.4,0.7-0.5C256.2,40.2,256.3,40.1,256.3,40.1z"/>
								</g>
							</g>
						</g>
					</g>
				</g>
				<g>
					<path class="st10" d="M261,41.9c2.2-0.2,3.8-1.5,4.7-2.6c0.2-0.2,0.3-0.5,0.5-0.7c0.6-1.1,0.8-5.1-0.8-6
						c-1.1-0.6-2,0.3-2.3,0.9l0,0c-0.2,0.3-0.3,0.5-0.3,0.5L261,41.9z"/>
					<path class="st2" d="M261,41.9c2.2-0.2,3.8-1.5,4.7-2.6c0.1-0.1,0.1-0.2,0.2-0.3c0.6-1.1,0.8-5.1-0.8-6c-0.9-0.5-1.6,0-2.1,0.5
						l0,0c-0.2,0.3-0.3,0.5-0.3,0.5L261,41.9z"/>
					<path class="st3" d="M265.9,35.8c0.1,0.3,0,0.6-0.1,1c-0.4,1.3-1.8,2.3-3,3.3c0.4-0.6,0.5-1.4,0.4-2.1c0-0.2-0.1-0.5-0.1-0.7
						C263.1,36.2,265.4,33.9,265.9,35.8z"/>
					<g>
						<path class="st12" d="M262.1,40.4L262.1,40.4c0.1-0.1,0.2-0.1,0.3-0.2c0.2-0.1,0.4-0.3,0.6-0.6s0.4-0.6,0.5-1.1
							c0.1-0.4,0.1-0.9-0.2-1.4c0-0.1-0.1-0.1-0.1-0.2l0,0l0,0l0,0l0,0l0,0l0,0l0,0v-0.1l0.1-0.1c0.1-0.2,0.2-0.4,0.4-0.5
							c0.1-0.2,0.3-0.3,0.4-0.5c0.1-0.1,0.3-0.3,0.4-0.4c0.1-0.1,0.3-0.2,0.4-0.2s0.3,0,0.3,0.1c0.1,0,0.1,0.1,0.2,0.1v0.1
							c0,0,0,0,0-0.1c0,0,0-0.1-0.1-0.2c-0.1-0.1-0.2-0.1-0.4-0.1c-0.2,0-0.4,0.1-0.5,0.2c-0.2,0.1-0.3,0.2-0.5,0.4
							c-0.2,0.1-0.3,0.3-0.5,0.5s-0.3,0.4-0.5,0.6c0,0-0.1,0.1-0.1,0.2V37l-0.1,0.1v0.1v0.1l0.1,0.1c0,0,0.1,0.1,0.1,0.2
							c0.2,0.4,0.2,0.8,0.2,1.2s-0.2,0.7-0.3,1c-0.2,0.3-0.3,0.5-0.5,0.6C262.3,40.3,262.2,40.3,262.1,40.4L262.1,40.4z"/>
					</g>
				</g>
			</g>
			<g>
				<path class="st3" d="M247,37.9c0.1,0.3,0.3,0.6,0.5,0.8c0.3,0.3,0.7,0.6,1,0.8c0.8-0.2,1.5-0.7,1.8-1.5c-0.1,0-0.2,0-0.3,0.1
					c-0.7,0.1-1.4,0.2-2.2,0.1C247.6,38.1,247.3,38.1,247,37.9z"/>
				<path class="st11" d="M246.7,37.2c0-0.3,0.2-0.5,0.4-0.7c0.2-0.2,0.4-0.3,0.7-0.3c0.4-0.1,0.8,0,1.1,0.2h0.1
					c-0.2-0.5-0.4-1.1-0.5-1.9c-0.3-1.5-0.4-2.9-0.4-2.9s0.5,1.2,0.9,2.7c0.2,0.9,0.3,1.6,0.3,2.2c0,0.1,0,0.1,0,0.2
					c-0.1,0-0.1,0-0.2-0.1s-0.2-0.1-0.3-0.1c-0.3-0.1-0.6-0.1-0.9,0s-0.6,0.3-0.6,0.7c0,0.3,0.1,0.7,0.2,1.1
					c0.2,0.3,0.4,0.6,0.5,0.8c0.2,0.2,0.4,0.3,0.5,0.4c0.1,0.1,0.2,0.1,0.2,0.1s-0.1,0-0.3,0c-0.2,0-0.4-0.1-0.7-0.3
					c-0.3-0.2-0.5-0.4-0.8-0.8C246.8,38.2,246.6,37.7,246.7,37.2z"/>
			</g>
		</g>
	</g>
	<g>
		<path class="st0" d="M237.1,23.9c0.5,1,1.8,1.5,2.7,1.1c0,0.3,0,0.6,0.1,0.9c0.2,0.8,0.9,1.6,1.7,1.8c1.1,0.4,2.4,0.1,3.3-0.6
			c0.9-0.7,1.6-1.7,2-2.8c1.9,1.2,4.7,0.5,5.9-1.4c1.8,1.4,4.4,1.4,6.1-0.1l0.6,3.7l1.9,1.3l1,7l2.8-2.1c0.4-0.2,0.8-0.5,1.1-0.9
			c0.4-0.4,0.7-1,0.7-1.5c0.1-0.9-0.3-1.8-1-2.4c0.8-0.5,1.2-1.7,1.2-2.6c0-0.9-0.5-1.9-1.3-2.4c0.8-1.2,0.8-2.9-0.2-4
			s-2.7-1.4-4-0.7c0.1-0.7-0.3-1.4-0.9-1.7s-1.4-0.2-1.9,0.3c-0.2-1.3-1.4-2.6-2.7-2.9c-1.3-0.3-2.7,0.3-3.4,1.4
			c-0.7-1.2-2.2-2-3.6-1.8c-1.4,0.1-2.7,1.1-3.3,2.4c-1.2-0.6-2.6-0.4-3.8,0.3c-1.2,0.6-2,1.9-2.2,3.2c-1.1,0.2-2.1,0.7-2.8,1.6
			C236.8,21.7,236.6,22.9,237.1,23.9z"/>
		<path class="st1" d="M237.1,23.9c0.5,1,1.8,1.5,2.7,1.1c0,0.3,0,0.6,0.1,0.9c2.3-0.7,4.3-2.4,4.9-4.7c0.9,1.1,2.5,1.6,3.8,1.2
			c1.4-0.4,2.5-1.6,2.7-3c0.3,1.1,1.3,2,2.5,2.1s2.3-0.7,2.7-1.8c1.3,1.7,3.7,2.3,5.6,1.4c-0.8,1-1.1,2.5-0.7,3.8s1.5,2.3,2.8,2.6
			c-0.6,1.1-0.5,2.6,0.4,3.5c0.5,0.5,1.1,0.8,1.8,0.9c0.4-0.4,0.7-1,0.7-1.5c0.1-0.9-0.3-1.8-1-2.4c0.8-0.5,1.2-1.7,1.2-2.6
			c0-0.3,0-0.6-0.1-0.8c-0.2-0.6-0.6-1.2-1.1-1.6c0.8-1.2,0.8-2.9-0.2-4s-2.7-1.4-4-0.7c0.1-0.7-0.3-1.4-0.9-1.7s-1.4-0.2-1.9,0.3
			c-0.2-1.3-1.4-2.6-2.7-2.9c-1.3-0.3-2.7,0.3-3.4,1.4c-0.7-1.2-2.2-2-3.6-1.8c-1.4,0.1-2.7,1.1-3.3,2.4c-1.2-0.6-2.6-0.4-3.8,0.3
			c-1.2,0.6-2,1.9-2.2,3.2c-1.1,0.2-2.1,0.7-2.8,1.6c-0.3,0.4-0.5,1-0.6,1.5C236.8,22.9,236.9,23.4,237.1,23.9z"/>
		<path class="st15" d="M236.9,22.3c1.7-0.9,3.7-1.2,5.6-0.7c-0.5-1.3,0.3-2.9,1.6-3.4s2.8,0,3.8,1c-0.1-1.4,0.9-2.7,2.2-3
			c1.3-0.3,2.8,0.4,3.3,1.7c0.5-1.2,1.8-1.9,3.1-1.7c1.3,0.2,2.3,1.2,2.5,2.5c0.3-0.5,1.1-0.7,1.5-0.3c0.5,0.3,0.6,1.1,0.2,1.6
			c1.1-0.9,2.9-0.8,3.9,0.2s0.9,2.9-0.1,3.9c1-0.2,2-0.1,2.9,0.4c-0.2-0.6-0.6-1.2-1.1-1.6c0.8-1.2,0.8-2.9-0.2-4s-2.7-1.4-4-0.7
			c0.1-0.7-0.3-1.4-0.9-1.7s-1.4-0.2-1.9,0.3c-0.2-1.3-1.4-2.6-2.7-2.9c-1.3-0.3-2.7,0.3-3.4,1.4c-0.7-1.2-2.2-2-3.6-1.8
			c-1.4,0.1-2.7,1.1-3.3,2.4c-1.2-0.6-2.6-0.4-3.8,0.3c-1.2,0.6-2,1.9-2.2,3.2c-1.1,0.2-2.1,0.7-2.8,1.6
			C237.2,21.3,236.9,21.8,236.9,22.3z"/>
	</g>
	<g>
		<g>
			<g>
				<g>
					<g>
						<g>
							<g>
								<g>
									<g>
										<path class="st20" d="M273.9,125.6l-42.4-1.7c0,0,0.7-6.8,1.8-16c1.6-13.7,4.1-32.7,6.5-42.4c0.6-2.4,1.2-4.3,1.8-5.3
											c2.7-2.9,4.8-4.5,5.1-4.8l0,0l0,0c6.8-4.3,15.1-4.3,15.1-4.3c0.6,0,1.8,0.5,3.1,1.2c1.6,0.8,3.2,1.8,3.7,2.2
											c5.6,3.9,7.3,17.7,7.5,32.1C276.4,105.5,273.9,125.6,273.9,125.6z"/>
									</g>
								</g>
							</g>
						</g>
					</g>
				</g>
			</g>
			<path class="st20" d="M265.5,52.6l-1.8-5.3c0,0-14.7,1.3-15,3.7s-0.7,5.5-0.7,5.5l3.6,5.7l12.3-5.1L265.5,52.6z"/>
		</g>
		<path class="st21" d="M250,55.9c0.4-0.1,0.7-0.2,1.1-0.3c-0.2-0.6-0.4-1.2-0.5-1.8s-0.5-1.2-0.3-1.8c0-0.1,0.2-0.1,0.3,0
			c0.4,0.4,0.4,1.1,0.5,1.6c0.2,0.6,0.4,1.3,0.4,1.9c0.6-0.2,1.2-0.3,1.8-0.5c-0.3-0.6-0.4-1.3-0.5-1.9c-0.2-0.8-0.4-1.5-0.3-2.3
			c0-0.3,0.4-0.3,0.5,0c0.2,0.7,0.3,1.5,0.4,2.2c0.1,0.6,0.3,1.3,0.4,1.9c0.7-0.2,1.5-0.3,2.2-0.5c-0.2-0.5-0.4-1-0.5-1.5
			c-0.2-0.7-0.5-1.5-0.3-2.2c0-0.2,0.2-0.2,0.3-0.1c0.3,0.6,0.4,1.4,0.5,2.1c0.1,0.5,0.3,1.1,0.3,1.7c0.7-0.1,1.4-0.2,2-0.3
			c-0.2-0.6-0.3-1.2-0.4-1.8s-0.4-1.4-0.1-2c0-0.1,0.2-0.1,0.2,0c0.4,0.5,0.3,1.2,0.4,1.8c0.1,0.7,0.3,1.3,0.3,2
			c0.9-0.1,1.7-0.1,2.6-0.1c-0.1-0.5-0.1-1-0.1-1.5c0-0.6-0.1-1.5,0.3-2.1c0.1-0.1,0.2-0.1,0.2,0c0.3,0.6,0,1.3,0,2
			c0,0.5,0,1.1-0.1,1.6c0.6,0,1.3,0,1.9,0.1c0.1,0,0.1,0.1,0,0.1c-4.6,0.6-9.1,1-13.6,2.4C249.7,56.6,249.5,56,250,55.9z"/>
	</g>
	<path class="st21" d="M276,59.5c0.1-0.2,0.5-0.2,0.5,0.1c-1,10.1-2.4,19.8-1.5,30c0.1,0.7-1,0.7-1,0C272.9,79.8,272.8,69,276,59.5z
		"/>
	<path class="st21" d="M237.4,76.7c1-5.5,2.3-11.3,4.6-16.4c0.1-0.2,0.4-0.1,0.4,0.1c-1.1,5.6-2.8,11-3.8,16.6
		c-1,5.5-1,11.3-2.1,16.8c-0.1,0.4-0.7,0.3-0.7-0.1C235.2,88.3,236.4,82.1,237.4,76.7z"/>
</g>
</svg>
